<svg width="32" height="32" viewBox="0 0 32 32" fill="none" xmlns="http://www.w3.org/2000/svg">
<rect width="32" height="32" rx="16" fill="#6053F6"/>
<path d="M23.5505 9.10302C22.0697 7.6222 20.0249 6.70361 17.7666 6.70361H7.90405V12.2839C8.62395 13.1888 9.64221 13.7729 10.9753 14.0499C11.6104 14.1815 12.2455 14.2775 12.9051 14.3652V11.2392H17.7666C19.784 11.2392 21.4182 12.8763 21.4182 14.8972C21.4182 15.5828 21.2293 16.2245 20.9035 16.7729C21.555 17.5242 21.9245 18.4977 21.9766 19.6521C22.0121 20.4117 21.9574 21.1576 21.9054 21.8815C21.9027 21.9089 21.9027 21.9391 21.8999 21.9665C24.3197 20.5461 25.9456 17.9108 25.9456 14.8972C25.9456 12.6349 25.0286 10.5865 23.5505 9.10302ZM7.90405 23.7133V31.7232H12.9051V25.0625C11.8512 24.8569 10.7618 24.6457 9.69425 24.3769C9.15499 24.2398 8.5227 24.0451 7.90405 23.7133Z" fill="white"/>
<path d="M21.1569 19.6888C21.0751 17.8961 20.1009 16.6745 18.4023 16.1594C17.3187 15.832 16.1811 15.6827 15.0632 15.4982C13.6471 15.2643 12.211 15.1493 10.8087 14.8557C8.74468 14.425 7.19405 13.3083 6.36715 11.2385C6.35132 11.9681 6.28451 12.6987 6.32735 13.4268C6.46475 15.7174 7.60769 17.2928 9.79426 18.052C10.4563 18.2807 11.1421 18.46 11.8318 18.5973L14.1448 18.9622C15.3157 19.1842 16.5174 19.4325 17.7104 19.8688C19.2078 20.4147 20.3439 21.4169 21.0312 22.6861C21.0837 21.685 21.2016 20.6864 21.1569 19.6888Z" fill="white"/>
<path d="M16.9981 21.8196C15.7378 21.3591 14.3872 21.1231 13.0611 20.8718C10.5572 20.3972 8.00771 20.0593 6.29108 17.5935C6.00927 18.9051 5.96046 20.0057 6.46277 21.0889C7.14512 22.5603 8.45235 23.2143 9.89485 23.5782C11.6251 24.0146 13.3936 24.2968 15.1404 24.6696C16.8447 25.0333 18.5125 25.4817 19.5082 27.187C20.1675 24.801 19.1882 22.6198 16.9981 21.8196Z" fill="white"/>
</svg>
