<svg width="472" height="499" viewBox="0 0 472 499" fill="none" xmlns="http://www.w3.org/2000/svg">
<path d="M471.118 264.071C468.562 208.05 438.118 169.873 385.036 153.777C351.175 143.545 315.623 138.879 280.689 133.114C236.436 125.805 191.559 122.211 147.738 113.038C83.2356 99.5767 34.7784 64.6791 8.93783 0C8.44329 22.7979 6.35543 45.6311 7.69423 68.3834C11.9879 139.963 47.7049 189.195 116.035 212.922C136.723 220.069 158.154 225.672 179.709 229.963L251.988 241.366C288.579 248.302 326.133 256.061 363.414 269.697C410.208 286.755 445.71 318.075 467.188 357.738C468.831 326.453 472.515 295.248 471.118 264.071Z" fill="white"/>
<path d="M341.158 330.66C301.772 316.27 259.566 308.894 218.126 301.04C139.88 286.21 60.208 275.651 6.56322 198.594C-2.24342 239.582 -3.76845 273.974 11.9287 307.825C33.2522 353.806 74.1029 374.243 119.181 385.615C173.25 399.253 228.515 408.073 283.104 419.723C336.364 431.088 388.482 445.101 419.599 498.392C440.2 423.829 409.598 355.665 341.158 330.66Z" fill="white"/>
</svg>
